<?xml version="1.0" encoding="UTF-8"?><svg xmlns="http://www.w3.org/2000/svg" viewBox="0 0 203.27 67.59"><defs><style>.cls-1{fill:#fff;}</style></defs><g id="By_Solution"><path class="cls-1" d="m15.74,0C11.92,0,8.52,1.29,6.03,3.41v4.23c2.12-2.3,5.57-4.33,9.76-4.33,6.81,0,12.06,5.34,12.06,12.52v9.9c2.26-2.39,3.68-5.85,3.68-9.9C31.53,6.72,24.49,0,15.74,0Z"/><path class="cls-1" d="m3.73,15.56V5.66C1.47,8.06,0,11.51,0,15.56c0,9.11,7.04,15.83,15.79,15.83,3.82,0,7.23-1.29,9.76-3.41v-4.24c-2.16,2.3-5.66,4.33-9.8,4.33-6.81,0-12.01-5.39-12.01-12.52Z"/><path class="cls-1" d="m52.77.51h-10.68v30.38h3.59V3.64h7.04c4,0,6.08,2.49,6.08,5.71s-2.07,5.66-6.08,5.66h-4.79v3.13h4.83c5.98,0,9.71-3.68,9.71-8.84S58.76.51,52.77.51Z"/><path class="cls-1" d="m88.22,7.14l2.62-1.98C89,2.21,85.51,0,81.46,0,80.26,0,79.15.18,78.14.51v3.41c1.01-.41,2.21-.6,3.22-.6,2.76,0,5.25,1.38,6.86,3.82Z"/><path class="cls-1" d="m84.13,14.45l-3.36-1.61c-2.76-1.33-4.88-2.35-4.88-5.57V1.57c-2.21,1.33-3.73,3.54-3.73,6.4,0,4.28,3.31,6.4,6.86,8.1l3.41,1.61c2.99,1.43,5.06,2.53,5.06,5.8v6.21c2.3-1.47,3.73-3.77,3.73-6.77,0-4.1-2.62-6.35-7.09-8.47Z"/><path class="cls-1" d="m72.89,22.88l-2.67,1.98c2.35,4,6.4,6.54,11.09,6.54,1.43,0,2.72-.23,3.91-.64v-3.36c-1.2.41-2.58.69-3.87.69-3.91,0-6.63-2.39-8.47-5.2Z"/><polygon class="cls-1" points="98.22 .56 109.77 31.44 111.06 31.44 112.35 28.31 102.18 .56 98.22 .56"/><polygon class="cls-1" points="131.96 20.53 133.89 25.28 143.1 .56 139.19 .56 131.96 20.53"/><polygon class="cls-1" points="120.04 .05 111.89 20.44 113.59 25.14 120.68 7.37 130.3 31.44 131.64 31.44 132.69 28.5 121.32 .05 120.04 .05"/><polygon class="cls-1" points="154.06 21.55 158.89 10.32 157.01 5.85 146.33 30.94 150.1 30.94 152.68 24.77 165.11 24.77 163.73 21.55 154.06 21.55"/><polygon class="cls-1" points="159.49 .05 158.2 2.95 170.17 30.94 173.99 30.94 160.83 .05 159.49 .05"/><rect class="cls-1" x="175.88" y=".56" width="25" height="3.22"/><rect class="cls-1" x="186.56" y="6.03" width="3.59" height="24.9"/><path class="cls-1" d="m4.99,63.21h-1.72v-15.67h8.91v1.7h-7.19v5.19h7.19v1.7h-7.19v7.07Z"/><path class="cls-1" d="m16.75,49.71h-1.68v-2.17h1.68v2.17Zm0,13.5h-1.68v-11.55h1.68v11.55Z"/><path class="cls-1" d="m21.74,60.59c0,.74.27,1.01,1.07,1.01h.36v1.61h-.36c-2.15,0-2.75-.78-2.75-2.75v-12.92h1.68v13.05Z"/><path class="cls-1" d="m32.77,59.58h1.72c-.29,2.89-2.48,3.85-4.5,3.85-2.15,0-4.52-1.12-4.52-4.52v-3.04c0-3.4,2.37-4.52,4.52-4.52s4.52,1.12,4.52,4.52v1.95h-7.36v1.12c0,1.92,1.34,2.89,2.84,2.89,1.32,0,2.51-.74,2.78-2.24Zm.07-3.74c0-1.92-1.34-2.89-2.84-2.89s-2.84.96-2.84,2.89v.43h5.69v-.43Z"/><path class="cls-1" d="m43.34,55.04c-.2-1.34-1.1-2.08-2.53-2.08-1.25,0-2.17.63-2.17,1.68,0,.96.65,1.39,1.59,1.61l2.17.54c1.75.43,2.96,1.3,2.96,3.42,0,2.28-1.72,3.22-4.07,3.22s-4.45-1.12-4.63-3.92h1.72c.16,1.63,1.37,2.31,2.91,2.31s2.35-.65,2.37-1.66c0-.74-.34-1.39-1.61-1.7l-2.26-.56c-1.25-.29-2.84-1.14-2.84-3.2s1.77-3.36,3.89-3.36c2.33,0,4.05,1.12,4.23,3.69h-1.72Z"/><path class="cls-1" d="m56.71,55.31h-1.7c-.22-1.57-1.45-2.35-2.8-2.35-1.5,0-2.84.96-2.84,2.89v3.09c0,1.92,1.34,2.89,2.84,2.89,1.34,0,2.57-.78,2.8-2.35h1.7c-.25,2.98-2.46,3.96-4.5,3.96-2.15,0-4.52-1.1-4.52-4.52v-3.04c0-3.4,2.37-4.52,4.52-4.52,2.04,0,4.25.98,4.5,3.96Z"/><path class="cls-1" d="m60.67,55.2h-1.72c.29-2.89,2.48-3.85,4.5-3.85,2.15,0,4.52,1.12,4.52,4.52v7.34h-1.68v-1.19c-.74.96-2.04,1.41-3.6,1.41-1.97,0-3.83-1.05-3.83-3.42,0-1.16.49-2.73,2.51-3.31,1.32-.38,2.98-.51,4.92-.65v-.2c0-1.92-1.34-2.89-2.84-2.89-1.32,0-2.51.74-2.78,2.24Zm5.62,2.35c-2.53.18-3.96.34-4.75.76-.85.47-1.01.98-1.01,1.66,0,1.05.81,1.86,2.51,1.86,1.81,0,3.25-.96,3.25-2.78v-1.5Z"/><path class="cls-1" d="m80.21,55.87v7.34h-1.68v-7.36c0-1.92-1.34-2.89-2.84-2.89s-2.84.96-2.84,2.89v7.36h-1.68v-11.55h1.68v1.1c.58-.94,1.79-1.41,2.84-1.41,2.15,0,4.52,1.12,4.52,4.52Z"/><path class="cls-1" d="m87.58,58.58h1.77c.27,2.01,1.63,3.16,3.31,3.16,1.77,0,3-.83,3-2.48,0-1.41-.76-2.26-2.53-2.75l-1.99-.56c-2.33-.65-3.29-2.55-3.29-4.45,0-2.69,2.13-4.16,4.63-4.16,2.71,0,4.39,1.52,4.72,4.19h-1.77c-.34-1.5-1.28-2.48-2.96-2.48-1.88,0-2.89,1.1-2.89,2.46,0,1.43.72,2.33,2.33,2.78l1.83.52c2.22.63,3.65,1.99,3.65,4.48s-1.61,4.19-4.75,4.19c-2.84,0-4.86-1.86-5.08-4.86Z"/><path class="cls-1" d="m101.32,55.2h-1.72c.29-2.89,2.49-3.85,4.5-3.85,2.15,0,4.52,1.12,4.52,4.52v7.34h-1.68v-1.19c-.74.96-2.04,1.41-3.6,1.41-1.97,0-3.83-1.05-3.83-3.42,0-1.16.49-2.73,2.51-3.31,1.32-.38,2.98-.51,4.92-.65v-.2c0-1.92-1.34-2.89-2.84-2.89-1.32,0-2.51.74-2.78,2.24Zm5.62,2.35c-2.53.18-3.96.34-4.75.76-.85.47-1.01.98-1.01,1.66,0,1.05.81,1.86,2.51,1.86,1.81,0,3.25-.96,3.25-2.78v-1.5Z"/><path class="cls-1" d="m120.87,55.87v7.34h-1.68v-7.36c0-1.92-1.34-2.89-2.84-2.89s-2.84.96-2.84,2.89v7.36h-1.68v-11.55h1.68v1.1c.58-.94,1.79-1.41,2.84-1.41,2.15,0,4.52,1.12,4.52,4.52Z"/><path class="cls-1" d="m123.76,58.91v-3.04c0-3.4,2.37-4.52,4.52-4.52,1.05,0,2.26.47,2.84,1.41v-5.22h1.68v15.67h-1.68v-1.19c-.58.94-1.79,1.41-2.84,1.41-2.15,0-4.52-1.12-4.52-4.52Zm1.68.02c0,1.92,1.34,2.89,2.84,2.89s2.84-.96,2.84-2.89v-3.09c0-1.92-1.34-2.89-2.84-2.89s-2.84.96-2.84,2.89v3.09Z"/><path class="cls-1" d="m137.84,62.02v1.19h-1.68v-15.67h1.68v5.22c.58-.94,1.79-1.41,2.84-1.41,2.15,0,4.52,1.12,4.52,4.52v3.04c0,3.4-2.37,4.52-4.52,4.52-1.05,0-2.26-.47-2.84-1.41Zm5.69-6.18c0-1.92-1.34-2.89-2.84-2.89s-2.84.96-2.84,2.89v3.09c0,1.92,1.34,2.89,2.84,2.89s2.84-.96,2.84-2.89v-3.09Z"/><path class="cls-1" d="m156.98,58.91c0,3.4-2.37,4.52-4.52,4.52s-4.52-1.12-4.52-4.52v-3.04c0-3.4,2.37-4.52,4.52-4.52s4.52,1.12,4.52,4.52v3.04Zm-1.68-3.07c0-1.92-1.34-2.89-2.84-2.89s-2.84.96-2.84,2.89v3.09c0,1.92,1.34,2.89,2.84,2.89s2.84-.96,2.84-2.89v-3.09Z"/><path class="cls-1" d="m163.27,58.53l-3.07,4.68h-1.9l3.92-5.93-3.74-5.62h1.95l2.84,4.28,2.84-4.28h1.95l-3.74,5.62,3.92,5.93h-1.9l-3.07-4.68Z"/></g><g id="GUIDE"><path class="cls-1" d="m200.91,26.76c-1.3,0-2.38,1.09-2.38,2.43s1.08,2.42,2.38,2.42,2.36-1.09,2.36-2.42-1.06-2.43-2.36-2.43Z"/></g></svg>