<?xml version="1.0" encoding="UTF-8"?><svg id="GUIDE" xmlns="http://www.w3.org/2000/svg" viewBox="0 0 203.27 67.59"><defs><style>.cls-1{fill:#2672fb;}.cls-2{fill:#191918;}</style></defs><g><path class="cls-2" d="M15.74,0c-3.82,0-7.23,1.29-9.71,3.41V7.64c2.12-2.3,5.57-4.33,9.76-4.33,6.81,0,12.06,5.34,12.06,12.52v9.9c2.26-2.39,3.68-5.85,3.68-9.9C31.53,6.72,24.49,0,15.74,0Z"/><path class="cls-2" d="M3.73,15.56V5.66C1.47,8.06,0,11.51,0,15.56c0,9.11,7.04,15.83,15.79,15.83,3.82,0,7.23-1.29,9.76-3.41v-4.24c-2.16,2.3-5.66,4.33-9.8,4.33-6.81,0-12.01-5.39-12.01-12.52Z"/><path class="cls-2" d="M52.77,.51h-10.68V30.89h3.59V3.64h7.04c4,0,6.08,2.49,6.08,5.71s-2.07,5.66-6.08,5.66h-4.79v3.13h4.83c5.98,0,9.71-3.68,9.71-8.84S58.76,.51,52.77,.51Z"/><path class="cls-2" d="M88.22,7.14l2.62-1.98c-1.84-2.95-5.34-5.16-9.39-5.16-1.2,0-2.3,.18-3.31,.51V3.91c1.01-.41,2.21-.6,3.22-.6,2.76,0,5.25,1.38,6.86,3.82Z"/><path class="cls-2" d="M84.13,14.45l-3.36-1.61c-2.76-1.33-4.88-2.35-4.88-5.57V1.57c-2.21,1.33-3.73,3.54-3.73,6.4,0,4.28,3.31,6.4,6.86,8.1l3.41,1.61c2.99,1.43,5.06,2.53,5.06,5.8v6.21c2.3-1.47,3.73-3.77,3.73-6.77,0-4.1-2.62-6.35-7.09-8.47Z"/><path class="cls-2" d="M72.89,22.88l-2.67,1.98c2.35,4,6.4,6.54,11.09,6.54,1.43,0,2.72-.23,3.91-.64v-3.36c-1.2,.41-2.58,.69-3.87,.69-3.91,0-6.63-2.39-8.47-5.2Z"/><polygon class="cls-2" points="98.22 .56 109.77 31.44 111.06 31.44 112.35 28.31 102.18 .56 98.22 .56"/><polygon class="cls-2" points="131.96 20.53 133.89 25.28 143.1 .56 139.19 .56 131.96 20.53"/><polygon class="cls-2" points="120.04 .05 111.89 20.44 113.59 25.14 120.68 7.37 130.3 31.44 131.64 31.44 132.69 28.5 121.32 .05 120.04 .05"/><polygon class="cls-2" points="154.06 21.55 158.89 10.32 157.01 5.85 146.33 30.94 150.1 30.94 152.68 24.77 165.11 24.77 163.73 21.55 154.06 21.55"/><polygon class="cls-2" points="159.49 .05 158.2 2.95 170.17 30.94 173.99 30.94 160.83 .05 159.49 .05"/><rect class="cls-2" x="175.88" y=".56" width="25" height="3.22"/><rect class="cls-2" x="186.56" y="6.03" width="3.59" height="24.9"/><path class="cls-2" d="M200.91,26.76c-1.3,0-2.38,1.09-2.38,2.43s1.08,2.42,2.38,2.42,2.36-1.09,2.36-2.42-1.06-2.43-2.36-2.43Z"/></g><g><path class="cls-1" d="M4.99,63.21h-1.72v-15.67H12.18v1.7H4.99v5.19h7.19v1.7H4.99v7.07Z"/><path class="cls-1" d="M16.55,49.71h-1.68v-2.17h1.68v2.17Zm0,13.5h-1.68v-11.55h1.68v11.55Z"/><path class="cls-1" d="M21.35,60.59c0,.74,.27,1.01,1.07,1.01h.36v1.61h-.36c-2.15,0-2.75-.78-2.75-2.75v-12.92h1.68v13.05Z"/><path class="cls-1" d="M32.25,59.59h1.72c-.29,2.89-2.48,3.85-4.5,3.85-2.15,0-4.52-1.12-4.52-4.52v-3.04c0-3.4,2.37-4.52,4.52-4.52s4.52,1.12,4.52,4.52v1.95h-7.36v1.12c0,1.92,1.34,2.89,2.84,2.89,1.32,0,2.51-.74,2.78-2.24Zm.07-3.74c0-1.92-1.34-2.89-2.84-2.89s-2.84,.96-2.84,2.89v.42h5.69v-.42Z"/><path class="cls-1" d="M43.02,55.04c-.2-1.34-1.1-2.08-2.53-2.08-1.25,0-2.17,.63-2.17,1.68,0,.96,.65,1.39,1.59,1.61l2.17,.54c1.75,.42,2.95,1.3,2.95,3.42,0,2.28-1.72,3.22-4.07,3.22s-4.45-1.12-4.63-3.92h1.72c.16,1.63,1.37,2.31,2.91,2.31s2.35-.65,2.37-1.66c0-.74-.34-1.39-1.61-1.7l-2.26-.56c-1.25-.29-2.84-1.14-2.84-3.2s1.77-3.36,3.9-3.36c2.33,0,4.05,1.12,4.23,3.69h-1.72Z"/><path class="cls-1" d="M56.48,55.31h-1.7c-.22-1.57-1.45-2.35-2.8-2.35-1.5,0-2.84,.96-2.84,2.89v3.09c0,1.92,1.34,2.89,2.84,2.89,1.34,0,2.57-.78,2.8-2.35h1.7c-.25,2.98-2.46,3.96-4.5,3.96-2.15,0-4.52-1.1-4.52-4.52v-3.04c0-3.4,2.37-4.52,4.52-4.52,2.04,0,4.25,.98,4.5,3.96Z"/><path class="cls-1" d="M60.72,55.2h-1.72c.29-2.89,2.48-3.85,4.5-3.85,2.15,0,4.52,1.12,4.52,4.52v7.34h-1.68v-1.19c-.74,.96-2.04,1.41-3.6,1.41-1.97,0-3.83-1.05-3.83-3.42,0-1.16,.49-2.73,2.51-3.31,1.32-.38,2.98-.51,4.92-.65v-.2c0-1.92-1.34-2.89-2.84-2.89-1.32,0-2.51,.74-2.78,2.24Zm5.62,2.35c-2.53,.18-3.96,.34-4.75,.76-.85,.47-1.01,.99-1.01,1.66,0,1.05,.81,1.86,2.51,1.86,1.81,0,3.25-.96,3.25-2.78v-1.5Z"/><path class="cls-1" d="M80.14,55.87v7.34h-1.68v-7.36c0-1.92-1.34-2.89-2.84-2.89s-2.84,.96-2.84,2.89v7.36h-1.68v-11.55h1.68v1.1c.58-.94,1.79-1.41,2.84-1.41,2.15,0,4.52,1.12,4.52,4.52Z"/></g></svg>
